<?xml version="1.0" encoding="utf-8"?>
<!-- Generator: Adobe Illustrator 22.1.0, SVG Export Plug-In . SVG Version: 6.00 Build 0)  -->
<svg version="1.1" id="d3e3e3e8-9182-4cea-9aab-da30658b892c"
	 xmlns="http://www.w3.org/2000/svg" xmlns:xlink="http://www.w3.org/1999/xlink" x="0px" y="0px" viewBox="0 0 40 40"
	 style="enable-background:new 0 0 40 40;" xml:space="preserve" height="40" width="40">
<style type="text/css">
	.st0{fill:#EC775D;}
</style>
<path class="st0" d="M20.5,10c0.9-1.3,2.1-2.4,3.5-3.2c1.7-0.9,3.2-1.9,5.4-2.3s4.2-0.6,6.8,0.7c2.6,1.3,3.1,2.9,3.6,5.1
	s-0.4,5.3-1.9,7.6c-2.1,3-4.8,5.2-7.7,7.4c-2.1,1.6-4.1,3.3-6.1,5c-0.6,0.5-1.1,0.9-1.6,1.4c-1.4,1.5-2.9,2.9-4.3,4.4
	c-0.7,0.8-1.9,0.9-2.7,0.2c-0.1-0.1-0.2-0.2-0.3-0.3c-0.3-0.4-0.5-0.8-0.7-1.2c-1-2-2.3-3.9-3.9-5.6c-2.4-2.8-4.8-5.6-7.1-8.3
	c-2.1-2.4-2.8-5.2-3.2-8.5S2,3.6,8.3,3.3S19.4,7.9,20.5,10"/>
</svg>
