<?xml version="1.0" encoding="utf-8"?>
<!-- Generator: Adobe Illustrator 22.1.0, SVG Export Plug-In . SVG Version: 6.00 Build 0)  -->
<svg version="1.1" id="d3e3e3e8-9182-4cea-9aab-da30658b892c"
	 xmlns="http://www.w3.org/2000/svg" xmlns:xlink="http://www.w3.org/1999/xlink" x="0px" y="0px" viewBox="0 0 200 165.2"
	 style="enable-background:new 0 0 200 165.2;" xml:space="preserve">
<style type="text/css">
	.st0{fill:#EC775D;}
</style>
<path class="st0" d="M104.2,33.4c4.6-6.4,10.5-11.8,17.4-15.6c8.2-4.6,15.9-9.5,26.4-11.3s20.5-2.8,33.3,3.6
	c12.8,6.4,15.1,14.1,17.9,25.1s-1.8,26.1-9.5,37.4c-10.2,14.9-23.8,25.6-37.9,36.4c-10.2,7.9-20,16.4-30,24.6
	c-2.8,2.3-5.4,4.6-7.9,6.9c-6.9,7.2-14.1,14.1-21,21.5c-3.3,3.8-9.5,4.4-13.3,1c-0.5-0.5-1-0.8-1.3-1.3c-1.5-1.8-2.6-3.8-3.6-5.9
	c-5.1-10-11.3-19.2-19-27.4C44,114.8,32.2,101,20.7,87.4C10.4,75.4,7.1,62,4.8,45.4S13,1.6,43.7,0.1S98.5,22.9,104.2,33.4"/>
</svg>
