<svg xmlns="http://www.w3.org/2000/svg" xmlns:xlink="http://www.w3.org/1999/xlink" viewBox="0 0 378 521"><defs><style>.cls-1,.cls-10,.cls-11,.cls-12,.cls-16,.cls-17,.cls-18,.cls-6,.cls-7,.cls-8,.cls-9{fill:none;}.cls-2{clip-path:url(#clip-path);}.cls-3{fill:#86adbf;}.cls-4{fill:#679db7;}.cls-5{fill:#d65760;}.cls-10,.cls-6,.cls-7,.cls-8,.cls-9{stroke:#1a171b;stroke-width:0.83px;}.cls-6{stroke-dasharray:3.31 3.31;}.cls-7{stroke-dasharray:3.39 3.39;}.cls-8{stroke-dasharray:3.33 3.33;}.cls-9{stroke-dasharray:3.36 3.36;}.cls-11{stroke:#000;stroke-width:0.35px;}.cls-12,.cls-16,.cls-17,.cls-18{stroke:#fff;}.cls-12{stroke-width:0.69px;}.cls-13{fill:#d1c8af;}.cls-14{fill:#eab300;}.cls-15{fill:#e9efca;}.cls-16,.cls-17,.cls-18{stroke-linecap:round;stroke-linejoin:round;stroke-width:1.74px;}.cls-16{stroke-dasharray:0 5.24;}.cls-18{stroke-dasharray:0 5.18;}.cls-19{fill:#66635e;}</style><clipPath id="clip-path"><rect class="cls-1" x="-168" y="-192.34" width="1162.35" height="703.01"/></clipPath></defs><title>LIEBLINGSPLATTE</title><g id="Layer_5" data-name="Layer 5"><g class="cls-2"><path class="cls-3" d="M15.73,64.09V506.93H102.8V64.09ZM36.37,502.41H27.12v-5h9.25Zm4.13-40.05H24.76V441H40.5Zm0-40.93H24.76V400.08H40.5Zm0-41.23H24.76V358.85H40.5Zm0-40.62H24.76V318.23H40.5Zm0-40.92H24.76V277.31H40.5Zm0-41.24H24.76V236.07H40.5Zm0-40.92H24.76V195.15H40.5Zm0-40.62H24.76V154.53H40.5Zm0-41.55H24.76V113H40.5Zm0-40.92H24.76V72.06H40.5Zm12.83,409H44.08v-5h9.25Zm23.44-40.05H61V441H76.77Zm0-40.93H61V400.08H76.77Zm0-41.23H61V358.85H76.77Zm0-40.62H61V318.23H76.77Zm0-40.92H61V277.31H76.77Zm0-41.24H61V236.07H76.77Zm0-40.92H61V195.15H76.77Zm0-40.62H61V154.53H76.77Zm0-41.55H61V113H76.77Zm0-40.92H61V72.06H76.77Zm11.74,409H79.25v-5h9.26Zm5.26-40.05H78V441H93.77Zm0-40.93H78V400.08H93.77Zm0-41.23H78V358.85H93.77Zm0-40.62H78V318.23H93.77Zm0-40.92H78V277.31H93.77Zm0-41.24H78V236.07H93.77Zm0-40.92H78V195.15H93.77Zm0-40.62H78V154.53H93.77Zm0-41.55H78V113H93.77Zm0-40.92H78V72.06H93.77Z"/></g><path class="cls-4" d="M279.65,66.44V506.93h78.74V66.44Zm16.68,436h-9.25v-5h9.25Zm3.8-39.65H284.4V441.61h15.73Zm0-40.56H284.4V401.06h15.73Zm0-40.86H284.4V360.19h15.73Zm0-40.24H284.4V320h15.73Zm0-40.56H284.4V279.39h15.73Zm0-40.86H284.4V238.53h15.73Zm0-40.56H284.4V198h15.73Zm0-40.25H284.4V157.73h15.73Zm0-41.17H284.4V116.56h15.73Zm0-40.55H284.4V76h15.73Zm13.16,405.26H304v-5h9.25Zm3.85-39.65H301.4V441.61h15.74Zm0-40.56H301.4V401.06h15.74Zm0-40.86H301.4V360.19h15.74Zm0-40.24H301.4V320h15.74Zm0-40.56H301.4V279.39h15.74Zm0-40.86H301.4V238.53h15.74Zm0-40.56H301.4V198h15.74Zm0-40.25H301.4V157.73h15.74Zm0-41.17H301.4V116.56h15.74Zm0-40.55H301.4V76h15.74Zm31.33,405.26h-9.25v-5h9.25Zm.41-23.56H333.15V441.61h15.73Zm0-40.55H333.15V401.06h15.73Zm0-40.87H333.15V360.19h15.73Zm0-40.24H333.15V320h15.73Zm0-40.56H333.15V279.39h15.73Zm0-40.86H333.15V238.53h15.73Zm0-40.56H333.15V198h15.73Zm0-40.24H333.15V157.73h15.73Zm0-41.17H333.15V116.56h15.73Zm0-40.56H333.15V76h15.73Z"/><path class="cls-3" d="M103,65.92v441H279v-441Zm28.22,6.14h15.73V93.41H131.21Zm0,40.92h15.73v21.35H131.21Zm0,41.55h15.73v21.35H131.21Zm0,40.62h15.73V216.5H131.21Zm0,40.92h15.73v21.35H131.21Zm0,41.24h15.73v21.35H131.21Zm0,40.92h15.73v21.35H131.21Zm0,40.62h15.73V380.2H131.21Zm0,41.23h15.73v21.35H131.21Zm-17.28-328h15.74V93.41H113.93Zm0,40.92h15.74v21.35H113.93Zm0,41.55h15.74v21.35H113.93Zm0,40.62h15.74V216.5H113.93Zm0,40.92h15.74v21.35H113.93Zm0,41.24h15.74v21.35H113.93Zm0,40.92h15.74v21.35H113.93Zm0,40.62h15.74V380.2H113.93Zm0,41.23h15.74v21.35H113.93Zm18.75,89.71H110.93V448.11h21.75Zm22,0H133V448.11H154.7ZM183,437.67H167.21V400.08H183Zm0-41.23H167.21V358.85H183Zm0-40.62H167.21V318.23H183Zm0-40.92H167.21V277.31H183Zm0-41.24H167.21V236.07H183Zm0-40.93H167.21V195.14H183Zm0-40.61H167.21V154.53H183Zm0-41.55H167.21V113H183Zm0-40.92H167.21V72.06H183Zm31.18,392.76h-9.25v-5h9.25Zm2.2-40.05H200.59V441h15.74Zm0-40.93H200.59V400.08h15.74Zm0-41.23H200.59V358.85h15.74Zm0-40.62H200.59V318.23h15.74Zm0-40.92H200.59V277.31h15.74Zm0-41.24H200.59V236.07h15.74Zm0-40.92H200.59V195.15h15.74Zm0-40.62H200.59V154.53h15.74Zm0-41.55H200.59V113h15.74Zm0-40.92H200.59V72.06h15.74Zm14.76,409h-9.25v-5h9.25Zm2.25-40.05H217.6V441h15.74Zm0-40.93H217.6V400.08h15.74Zm0-41.23H217.6V358.85h15.74Zm0-40.62H217.6V318.23h15.74Zm0-40.92H217.6V277.31h15.74Zm0-41.24H217.6V236.07h15.74Zm0-40.92H217.6V195.15h15.74Zm0-40.62H217.6V154.53h15.74Zm0-41.55H217.6V113h15.74Zm0-40.92H217.6V72.06h15.74Zm32.93,409H257v-5h9.26Zm3.24-23.81H253.77V441h15.74Zm0-40.93H253.77V400.08h15.74Zm0-41.23H253.77V358.85h15.74Zm0-40.62H253.77V318.23h15.74Zm0-40.92H253.77V277.31h15.74Zm0-41.24H253.77V236.07h15.74Zm0-40.93H253.77V195.14h15.74Zm0-40.61H253.77V154.53h15.74Zm0-41.55H253.77V113h15.74Zm0-40.92H253.77V72.06h15.74Z"/><path class="cls-5" d="M279.65,20.63v52.5h78.74V20.63Zm20.48,36.09H284.4V35.57h15.73Zm17,0H301.4V35.57h15.74Zm31.74,16.09H333.15V35.57h15.73Z"/><line class="cls-6" x1="-158.14" y1="12.7" x2="275.47" y2="12.7"/><line class="cls-7" x1="290.87" y1="17.23" x2="349.97" y2="17.23"/><line class="cls-8" x1="365.34" y1="11.13" x2="533.1" y2="11.13"/><g class="cls-2"><line class="cls-9" x1="869.84" y1="509.44" x2="-161.08" y2="509.44"/><path class="cls-10" d="M-164.16,509.44h-3.07v-3m1048.2.84-1.89,2.19H876m25.81-29.35v3l-1.89,2.19m-.75-453.63,2.64,2.64v3M883.29,10.58l-2.64,2.64,2.64,2.64M901.81-11v3.1l-2.64,2.64m.55-141.39,2.09,2.15v3.11M857-187.64h3l2.09,2.16m-305.3,0,2.16-2.15h3m-46.18,46.1v-3.06l2.16-2.15m-.2,138.49-2-1.76v-3.06m20.37,24.21h3.05l-2-1.76M353.08,17.24h3.11V11.13h3.05M278.5,12.7h3v4.54h3.11m-451.88-1.51v-3h3"/></g><rect class="cls-11" x="102.99" y="16.45" width="176.02" height="490.49"/><rect class="cls-11" x="279.65" y="20.63" width="78.74" height="486.3"/><rect class="cls-11" x="15.73" y="16.45" width="87.07" height="490.49"/><line class="cls-11" x1="102.68" y1="437.99" x2="279.34" y2="437.99"/><line class="cls-11" x1="279.33" y1="438.61" x2="358.71" y2="438.61"/><line class="cls-11" x1="102.68" y1="397.07" x2="279.34" y2="397.07"/><line class="cls-11" x1="279.33" y1="398.06" x2="358.71" y2="398.06"/><line class="cls-11" x1="102.68" y1="356.14" x2="279.34" y2="356.14"/><line class="cls-11" x1="279.33" y1="357.51" x2="358.71" y2="357.51"/><line class="cls-11" x1="102.68" y1="315.22" x2="279.34" y2="315.22"/><line class="cls-11" x1="279.33" y1="316.95" x2="358.71" y2="316.95"/><line class="cls-11" x1="102.68" y1="274.29" x2="279.34" y2="274.29"/><line class="cls-11" x1="279.33" y1="276.4" x2="358.71" y2="276.4"/><line class="cls-11" x1="102.68" y1="233.37" x2="279.34" y2="233.37"/><line class="cls-11" x1="279.33" y1="235.85" x2="358.71" y2="235.85"/><line class="cls-11" x1="102.68" y1="192.44" x2="279.34" y2="192.44"/><line class="cls-11" x1="279.33" y1="195.29" x2="358.71" y2="195.29"/><line class="cls-11" x1="102.68" y1="151.52" x2="279.34" y2="151.52"/><line class="cls-11" x1="279.33" y1="154.74" x2="358.71" y2="154.74"/><line class="cls-11" x1="102.68" y1="110.59" x2="279.34" y2="110.59"/><line class="cls-11" x1="279.33" y1="114.19" x2="358.71" y2="114.19"/><line class="cls-11" x1="102.68" y1="69.67" x2="279.34" y2="69.67"/><line class="cls-11" x1="279.33" y1="73.63" x2="358.71" y2="73.63"/><line class="cls-11" x1="279.33" y1="33.08" x2="358.71" y2="33.08"/><rect class="cls-12" x="253.77" y="400.08" width="15.73" height="37.59"/><rect class="cls-12" x="333.15" y="401.06" width="15.73" height="37.24"/><rect class="cls-12" x="253.77" y="441.01" width="15.73" height="37.59"/><rect class="cls-12" x="333.15" y="441.61" width="15.73" height="37.24"/><rect class="cls-12" x="253.77" y="358.85" width="15.73" height="37.59"/><rect class="cls-12" x="333.15" y="360.19" width="15.73" height="37.24"/><rect class="cls-12" x="253.77" y="318.23" width="15.73" height="37.59"/><rect class="cls-12" x="333.15" y="319.95" width="15.73" height="37.24"/><rect class="cls-12" x="253.77" y="277.31" width="15.73" height="37.59"/><rect class="cls-12" x="333.15" y="279.39" width="15.73" height="37.24"/><rect class="cls-12" x="253.77" y="236.07" width="15.73" height="37.59"/><rect class="cls-12" x="333.15" y="238.53" width="15.73" height="37.24"/><rect class="cls-12" x="253.77" y="195.14" width="15.73" height="37.59"/><rect class="cls-12" x="333.15" y="197.98" width="15.73" height="37.24"/><rect class="cls-12" x="253.77" y="154.53" width="15.73" height="37.59"/><rect class="cls-12" x="333.15" y="157.73" width="15.73" height="37.24"/><rect class="cls-12" x="253.77" y="112.98" width="15.73" height="37.59"/><rect class="cls-12" x="333.15" y="116.56" width="15.73" height="37.24"/><rect class="cls-12" x="253.77" y="72.06" width="15.73" height="37.59"/><rect class="cls-12" x="333.15" y="76" width="15.73" height="37.24"/><rect class="cls-12" x="253.77" y="31.13" width="15.73" height="37.59"/><rect class="cls-12" x="333.15" y="35.45" width="15.73" height="37.24"/><rect class="cls-12" x="167.21" y="400.08" width="15.73" height="37.59"/><rect class="cls-12" x="167.21" y="358.85" width="15.73" height="37.59"/><rect class="cls-12" x="167.21" y="318.23" width="15.73" height="37.59"/><rect class="cls-12" x="167.21" y="277.31" width="15.73" height="37.59"/><rect class="cls-12" x="167.21" y="236.07" width="15.73" height="37.59"/><rect class="cls-12" x="167.21" y="195.14" width="15.73" height="37.59"/><rect class="cls-12" x="167.21" y="154.53" width="15.73" height="37.59"/><rect class="cls-12" x="167.21" y="112.98" width="15.73" height="37.59"/><rect class="cls-12" x="167.21" y="72.06" width="15.73" height="37.59"/><rect class="cls-12" x="167.21" y="31.13" width="15.73" height="37.59"/><rect class="cls-12" x="24.76" y="31.13" width="15.73" height="21.35"/><rect class="cls-12" x="24.76" y="72.06" width="15.73" height="21.35"/><rect class="cls-12" x="24.76" y="112.98" width="15.73" height="21.35"/><rect class="cls-12" x="24.76" y="154.53" width="15.73" height="21.35"/><rect class="cls-12" x="24.76" y="195.15" width="15.73" height="21.35"/><rect class="cls-12" x="24.76" y="236.07" width="15.73" height="21.35"/><rect class="cls-12" x="24.76" y="277.31" width="15.73" height="21.35"/><rect class="cls-12" x="24.76" y="318.23" width="15.73" height="21.35"/><rect class="cls-12" x="24.76" y="358.85" width="15.73" height="21.35"/><rect class="cls-12" x="24.76" y="400.08" width="15.73" height="21.35"/><rect class="cls-12" x="24.76" y="441.01" width="15.73" height="21.35"/><rect class="cls-12" x="257.01" y="497.37" width="9.26" height="5.04"/><rect class="cls-12" x="79.25" y="497.37" width="9.26" height="5.04"/><rect class="cls-12" x="339.22" y="497.37" width="9.26" height="5.04"/><rect class="cls-12" x="221.84" y="497.37" width="9.26" height="5.04"/><rect class="cls-12" x="44.08" y="497.37" width="9.26" height="5.04"/><rect class="cls-12" x="304.04" y="497.37" width="9.26" height="5.04"/><rect class="cls-12" x="204.87" y="497.37" width="9.26" height="5.04"/><rect class="cls-12" x="27.12" y="497.37" width="9.26" height="5.04"/><rect class="cls-12" x="287.08" y="497.37" width="9.26" height="5.04"/><rect class="cls-12" x="217.6" y="400.08" width="15.73" height="21.35"/><rect class="cls-12" x="301.4" y="401.06" width="15.73" height="21.15"/><rect class="cls-12" x="217.6" y="441.01" width="15.73" height="21.35"/><rect class="cls-12" x="301.4" y="441.61" width="15.73" height="21.15"/><rect class="cls-12" x="217.6" y="358.85" width="15.73" height="21.35"/><rect class="cls-12" x="301.4" y="360.19" width="15.73" height="21.15"/><rect class="cls-12" x="217.6" y="318.23" width="15.73" height="21.35"/><rect class="cls-12" x="301.4" y="319.95" width="15.73" height="21.15"/><rect class="cls-12" x="217.6" y="277.31" width="15.73" height="21.35"/><rect class="cls-12" x="301.4" y="279.39" width="15.73" height="21.15"/><rect class="cls-12" x="217.6" y="236.07" width="15.73" height="21.35"/><rect class="cls-12" x="301.4" y="238.53" width="15.73" height="21.15"/><rect class="cls-12" x="217.6" y="195.15" width="15.73" height="21.35"/><rect class="cls-12" x="301.4" y="197.98" width="15.73" height="21.15"/><rect class="cls-12" x="217.6" y="154.53" width="15.73" height="21.35"/><rect class="cls-12" x="301.4" y="157.73" width="15.73" height="21.15"/><rect class="cls-12" x="217.6" y="112.98" width="15.73" height="21.35"/><rect class="cls-12" x="301.4" y="116.56" width="15.73" height="21.15"/><rect class="cls-12" x="217.6" y="72.06" width="15.73" height="21.35"/><rect class="cls-12" x="301.4" y="76" width="15.73" height="21.15"/><rect class="cls-12" x="217.6" y="31.13" width="15.73" height="21.35"/><rect class="cls-12" x="301.4" y="35.45" width="15.73" height="21.15"/><rect class="cls-12" x="131.21" y="400.08" width="15.73" height="21.35"/><rect class="cls-12" x="110.93" y="448.11" width="21.75" height="41.67"/><rect class="cls-12" x="132.95" y="448.11" width="21.75" height="41.67"/><rect class="cls-12" x="131.21" y="358.85" width="15.73" height="21.35"/><rect class="cls-12" x="131.21" y="318.23" width="15.73" height="21.35"/><rect class="cls-12" x="131.21" y="277.31" width="15.73" height="21.35"/><rect class="cls-12" x="131.21" y="236.07" width="15.73" height="21.35"/><rect class="cls-12" x="131.21" y="195.15" width="15.73" height="21.35"/><rect class="cls-12" x="131.21" y="154.53" width="15.73" height="21.35"/><rect class="cls-12" x="131.21" y="112.98" width="15.73" height="21.35"/><rect class="cls-12" x="131.21" y="72.06" width="15.73" height="21.35"/><rect class="cls-12" x="131.21" y="31.13" width="15.73" height="21.35"/><rect class="cls-12" x="61.03" y="31.13" width="15.73" height="21.35"/><rect class="cls-12" x="61.03" y="72.06" width="15.73" height="21.35"/><rect class="cls-12" x="61.03" y="112.98" width="15.73" height="21.35"/><rect class="cls-12" x="61.03" y="154.53" width="15.73" height="21.35"/><rect class="cls-12" x="61.03" y="195.15" width="15.73" height="21.35"/><rect class="cls-12" x="61.03" y="236.07" width="15.73" height="21.35"/><rect class="cls-12" x="61.03" y="277.31" width="15.73" height="21.35"/><rect class="cls-12" x="61.03" y="318.23" width="15.73" height="21.35"/><rect class="cls-12" x="61.03" y="358.85" width="15.73" height="21.35"/><rect class="cls-12" x="61.03" y="400.08" width="15.73" height="21.35"/><rect class="cls-12" x="61.03" y="441.01" width="15.73" height="21.35"/><rect class="cls-12" x="200.59" y="400.08" width="15.73" height="21.35"/><rect class="cls-12" x="284.4" y="401.06" width="15.73" height="21.15"/><rect class="cls-12" x="200.59" y="441.01" width="15.73" height="21.35"/><rect class="cls-12" x="284.4" y="441.61" width="15.73" height="21.15"/><rect class="cls-12" x="200.59" y="358.85" width="15.73" height="21.35"/><rect class="cls-12" x="284.4" y="360.19" width="15.73" height="21.15"/><rect class="cls-12" x="200.59" y="318.23" width="15.73" height="21.35"/><rect class="cls-12" x="284.4" y="319.95" width="15.73" height="21.15"/><rect class="cls-12" x="200.59" y="277.31" width="15.73" height="21.35"/><rect class="cls-12" x="284.4" y="279.39" width="15.73" height="21.15"/><rect class="cls-12" x="200.59" y="236.07" width="15.73" height="21.35"/><rect class="cls-12" x="284.4" y="238.53" width="15.73" height="21.15"/><rect class="cls-12" x="200.59" y="195.15" width="15.73" height="21.35"/><rect class="cls-12" x="284.4" y="197.98" width="15.73" height="21.15"/><rect class="cls-12" x="200.59" y="154.53" width="15.73" height="21.35"/><rect class="cls-12" x="284.4" y="157.73" width="15.73" height="21.15"/><rect class="cls-12" x="200.59" y="112.98" width="15.73" height="21.35"/><rect class="cls-12" x="284.4" y="116.56" width="15.73" height="21.15"/><rect class="cls-12" x="200.59" y="72.06" width="15.73" height="21.35"/><rect class="cls-12" x="284.4" y="76" width="15.73" height="21.15"/><rect class="cls-12" x="200.59" y="31.13" width="15.73" height="21.35"/><rect class="cls-12" x="284.4" y="35.45" width="15.73" height="21.15"/><rect class="cls-12" x="113.93" y="400.08" width="15.73" height="21.35"/><rect class="cls-12" x="113.93" y="358.85" width="15.73" height="21.35"/><rect class="cls-12" x="113.93" y="318.23" width="15.73" height="21.35"/><rect class="cls-12" x="113.93" y="277.31" width="15.73" height="21.35"/><rect class="cls-12" x="113.93" y="236.07" width="15.73" height="21.35"/><rect class="cls-12" x="113.93" y="195.15" width="15.73" height="21.35"/><rect class="cls-12" x="113.93" y="154.53" width="15.73" height="21.35"/><rect class="cls-12" x="113.93" y="112.98" width="15.73" height="21.35"/><rect class="cls-12" x="113.93" y="72.06" width="15.73" height="21.35"/><path class="cls-5" d="M103,16.3V68.8H279V16.3Zm26.68,36.18H113.93V31.13h15.74Zm17-.24H130.94V30.89h15.74ZM183,68.48H167.21V30.89H183Zm33.38-16.24H200.59V30.89h15.74Zm17,0H217.6V30.89h15.74Zm36.17,16.24H253.77V30.89h15.74Z"/><rect class="cls-12" x="113.93" y="31.13" width="15.73" height="21.35"/><rect class="cls-12" x="113.93" y="30.89" width="15.73" height="21.35"/><path class="cls-5" d="M15.73,16.3V68.8H102.8V16.3ZM40.5,31.13V52.48H24.76V30.89H40.5Zm36.27,0V52.48H61V30.89H76.77Zm17,0V52.48H78V30.89H93.77Z"/><rect class="cls-12" x="78.04" y="31.13" width="15.73" height="21.35"/><rect class="cls-12" x="78.04" y="72.06" width="15.73" height="21.35"/><rect class="cls-12" x="78.04" y="112.98" width="15.73" height="21.35"/><rect class="cls-12" x="78.04" y="154.53" width="15.73" height="21.35"/><rect class="cls-12" x="78.04" y="195.15" width="15.73" height="21.35"/><rect class="cls-12" x="78.04" y="236.07" width="15.73" height="21.35"/><rect class="cls-12" x="78.04" y="277.31" width="15.73" height="21.35"/><rect class="cls-12" x="78.04" y="318.23" width="15.73" height="21.35"/><rect class="cls-12" x="78.04" y="358.85" width="15.73" height="21.35"/><rect class="cls-12" x="78.04" y="400.08" width="15.73" height="21.35"/><rect class="cls-12" x="78.04" y="441.01" width="15.73" height="21.35"/><rect class="cls-5" x="102.99" y="422.39" width="176.02" height="15.6"/><rect class="cls-11" x="102.99" y="422.39" width="176.02" height="15.6"/><rect class="cls-5" x="279.65" y="423.16" width="78.74" height="15.46"/><rect class="cls-11" x="279.65" y="423.16" width="78.74" height="15.46"/><rect class="cls-5" x="188.93" y="463.31" width="90.09" height="17.96"/><rect class="cls-11" x="188.93" y="463.31" width="90.09" height="17.96"/><rect class="cls-5" x="279.65" y="463.71" width="78.74" height="17.79"/><rect class="cls-11" x="279.65" y="463.71" width="78.74" height="17.79"/><rect class="cls-5" x="102.99" y="381.46" width="176.02" height="15.6"/><rect class="cls-11" x="102.99" y="381.46" width="176.02" height="15.6"/><rect class="cls-5" x="279.65" y="382.6" width="78.74" height="15.46"/><rect class="cls-11" x="279.65" y="382.6" width="78.74" height="15.46"/><rect class="cls-5" x="102.99" y="340.54" width="176.02" height="15.6"/><rect class="cls-11" x="102.99" y="340.54" width="176.02" height="15.6"/><rect class="cls-5" x="279.65" y="342.05" width="78.74" height="15.46"/><rect class="cls-11" x="279.65" y="342.05" width="78.74" height="15.46"/><rect class="cls-5" x="102.99" y="299.3" width="176.02" height="15.6"/><rect class="cls-11" x="102.99" y="299.3" width="176.02" height="15.6"/><rect class="cls-5" x="279.65" y="301.18" width="78.74" height="15.46"/><rect class="cls-11" x="279.65" y="301.18" width="78.74" height="15.46"/><rect class="cls-5" x="102.99" y="258.06" width="176.02" height="15.6"/><rect class="cls-11" x="102.99" y="258.06" width="176.02" height="15.6"/><rect class="cls-5" x="279.65" y="260.32" width="78.74" height="15.46"/><rect class="cls-11" x="279.65" y="260.32" width="78.74" height="15.46"/><rect class="cls-5" x="102.99" y="217.14" width="176.02" height="15.6"/><rect class="cls-11" x="102.99" y="217.14" width="176.02" height="15.6"/><rect class="cls-5" x="279.65" y="219.77" width="78.74" height="15.46"/><rect class="cls-11" x="279.65" y="219.77" width="78.74" height="15.46"/><rect class="cls-5" x="102.99" y="176.84" width="176.02" height="15.6"/><rect class="cls-11" x="102.99" y="176.84" width="176.02" height="15.6"/><rect class="cls-5" x="279.65" y="179.83" width="78.74" height="15.46"/><rect class="cls-11" x="279.65" y="179.83" width="78.74" height="15.46"/><rect class="cls-5" x="102.99" y="135.91" width="176.02" height="15.6"/><rect class="cls-11" x="102.99" y="135.91" width="176.02" height="15.6"/><rect class="cls-5" x="279.65" y="139.27" width="78.74" height="15.46"/><rect class="cls-11" x="279.65" y="139.27" width="78.74" height="15.46"/><rect class="cls-5" x="102.99" y="94.98" width="176.02" height="15.6"/><rect class="cls-11" x="102.99" y="94.98" width="176.02" height="15.6"/><rect class="cls-5" x="279.65" y="98.72" width="78.74" height="15.46"/><rect class="cls-11" x="279.65" y="98.72" width="78.74" height="15.46"/><rect class="cls-13" x="102.99" y="53.44" width="176.02" height="15.6"/><rect class="cls-11" x="102.99" y="53.44" width="176.02" height="15.6"/><rect class="cls-13" x="279.65" y="57.55" width="78.74" height="15.46"/><rect class="cls-11" x="279.65" y="57.55" width="78.74" height="15.46"/><rect class="cls-4" x="102.99" y="437.29" width="88.84" height="6.31"/><rect class="cls-11" x="102.99" y="437.29" width="88.84" height="6.31"/><rect class="cls-14" x="102.99" y="443.79" width="88.84" height="3.57"/><rect class="cls-11" x="102.99" y="443.79" width="88.84" height="3.57"/><rect class="cls-15" x="279.65" y="53.38" width="78.74" height="3.53"/><rect class="cls-11" x="279.65" y="53.38" width="78.74" height="3.53"/><rect class="cls-11" x="102.99" y="16.3" width="176.02" height="52.5"/><rect class="cls-11" x="279.65" y="20.63" width="78.74" height="52.5"/><rect class="cls-11" x="15.73" y="16.3" width="87.07" height="52.5"/><rect class="cls-12" x="253.77" y="30.89" width="15.73" height="37.59"/><rect class="cls-12" x="333.15" y="35.57" width="15.73" height="37.24"/><rect class="cls-12" x="167.21" y="30.89" width="15.73" height="37.59"/><rect class="cls-12" x="24.76" y="30.89" width="15.73" height="21.35"/><rect class="cls-12" x="217.6" y="30.89" width="15.73" height="21.35"/><rect class="cls-12" x="301.4" y="35.57" width="15.73" height="21.15"/><rect class="cls-12" x="130.94" y="30.89" width="15.73" height="21.35"/><rect class="cls-12" x="61.03" y="30.89" width="15.73" height="21.35"/><rect class="cls-12" x="200.59" y="30.89" width="15.73" height="21.35"/><rect class="cls-12" x="284.4" y="35.57" width="15.73" height="21.15"/><rect class="cls-12" x="78.04" y="30.89" width="15.73" height="21.35"/><rect class="cls-5" x="102.99" y="53.19" width="176.02" height="15.6"/><rect class="cls-11" x="102.99" y="53.19" width="176.02" height="15.6"/><rect class="cls-5" x="279.36" y="57.39" width="78.74" height="15.6"/><rect class="cls-11" x="279.36" y="57.39" width="78.74" height="15.6"/><rect class="cls-14" x="155.65" y="447.79" width="4.25" height="42.31"/><rect class="cls-11" x="155.65" y="447.79" width="4.25" height="42.31"/><rect class="cls-14" x="105.72" y="447.79" width="4.25" height="42.31"/><rect class="cls-11" x="105.72" y="447.79" width="4.25" height="42.31"/><rect class="cls-3" x="359.03" y="27.87" width="179.86" height="479.07"/><rect class="cls-11" x="359.03" y="27.87" width="179.86" height="479.07"/><rect class="cls-3" x="-164.76" y="20.63" width="179.86" height="486.3"/><rect class="cls-11" x="-164.76" y="20.63" width="179.86" height="486.3"/><rect class="cls-5" x="359.03" y="14.91" width="179.86" height="54.13"/><rect class="cls-11" x="359.03" y="14.91" width="179.86" height="54.13"/><rect class="cls-5" x="-164.76" y="16.35" width="179.86" height="50.92"/><rect class="cls-11" x="-164.76" y="16.35" width="179.86" height="50.92"/><line class="cls-16" x1="15.16" y1="28.1" x2="15.16" y2="503.18"/><g class="cls-2"><path class="cls-17" d="M15.16,508h0m0-489.48h0"/></g><rect class="cls-15" x="189.13" y="16.45" width="2.71" height="490.49"/><rect class="cls-11" x="189.13" y="16.45" width="2.71" height="490.49"/><rect class="cls-15" x="102.99" y="16.45" width="2.91" height="490.49"/><rect class="cls-11" x="102.99" y="16.45" width="2.91" height="490.49"/><rect class="cls-15" x="276.11" y="16.45" width="2.91" height="490.49"/><rect class="cls-11" x="276.11" y="16.45" width="2.91" height="490.49"/><rect class="cls-15" x="102.99" y="418.18" width="176.02" height="3.57"/><rect class="cls-11" x="102.99" y="418.18" width="176.02" height="3.57"/><rect class="cls-15" x="188.93" y="459.11" width="90.09" height="3.57"/><rect class="cls-11" x="188.93" y="459.11" width="90.09" height="3.57"/><rect class="cls-15" x="102.99" y="377.25" width="176.02" height="3.57"/><rect class="cls-11" x="102.99" y="377.25" width="176.02" height="3.57"/><rect class="cls-15" x="102.99" y="336.33" width="176.02" height="3.57"/><rect class="cls-11" x="102.99" y="336.33" width="176.02" height="3.57"/><rect class="cls-15" x="102.99" y="295.09" width="176.02" height="3.57"/><rect class="cls-11" x="102.99" y="295.09" width="176.02" height="3.57"/><rect class="cls-15" x="102.99" y="253.86" width="176.02" height="3.57"/><rect class="cls-11" x="102.99" y="253.86" width="176.02" height="3.57"/><rect class="cls-15" x="102.99" y="212.93" width="176.02" height="3.57"/><rect class="cls-11" x="102.99" y="212.93" width="176.02" height="3.57"/><rect class="cls-15" x="102.99" y="172.63" width="176.02" height="3.57"/><rect class="cls-11" x="102.99" y="172.63" width="176.02" height="3.57"/><rect class="cls-15" x="102.99" y="131.7" width="176.02" height="3.57"/><rect class="cls-11" x="102.99" y="131.7" width="176.02" height="3.57"/><rect class="cls-15" x="102.99" y="90.78" width="176.02" height="3.57"/><rect class="cls-11" x="102.99" y="90.78" width="176.02" height="3.57"/><rect class="cls-15" x="102.99" y="53.5" width="176.02" height="3.53"/><rect class="cls-11" x="102.99" y="53.5" width="176.02" height="3.53"/><rect class="cls-15" x="102.99" y="22.23" width="176.02" height="3.57"/><rect class="cls-11" x="102.99" y="22.23" width="176.02" height="3.57"/><rect class="cls-13" x="355.49" y="20.63" width="2.59" height="486.3"/><rect class="cls-11" x="355.49" y="20.63" width="2.59" height="486.3"/><rect class="cls-15" x="279.65" y="418.99" width="78.74" height="3.53"/><rect class="cls-11" x="279.65" y="418.99" width="78.74" height="3.53"/><rect class="cls-15" x="279.65" y="459.54" width="78.74" height="3.53"/><rect class="cls-11" x="279.65" y="459.54" width="78.74" height="3.53"/><rect class="cls-15" x="279.65" y="378.43" width="78.74" height="3.53"/><rect class="cls-11" x="279.65" y="378.43" width="78.74" height="3.53"/><rect class="cls-15" x="279.65" y="337.88" width="78.74" height="3.53"/><rect class="cls-11" x="279.65" y="337.88" width="78.74" height="3.53"/><rect class="cls-15" x="279.65" y="297.02" width="78.74" height="3.53"/><rect class="cls-11" x="279.65" y="297.02" width="78.74" height="3.53"/><rect class="cls-15" x="279.65" y="256.15" width="78.74" height="3.53"/><rect class="cls-11" x="279.65" y="256.15" width="78.74" height="3.53"/><rect class="cls-15" x="279.65" y="215.6" width="78.74" height="3.53"/><rect class="cls-11" x="279.65" y="215.6" width="78.74" height="3.53"/><rect class="cls-15" x="279.65" y="175.66" width="78.74" height="3.53"/><rect class="cls-11" x="279.65" y="175.66" width="78.74" height="3.53"/><rect class="cls-15" x="279.65" y="135.1" width="78.74" height="3.53"/><rect class="cls-11" x="279.65" y="135.1" width="78.74" height="3.53"/><rect class="cls-15" x="279.65" y="94.55" width="78.74" height="3.53"/><rect class="cls-11" x="279.65" y="94.55" width="78.74" height="3.53"/><rect class="cls-13" x="279.65" y="53.5" width="78.74" height="3.53"/><rect class="cls-11" x="279.65" y="53.5" width="78.74" height="3.53"/><rect class="cls-13" x="279.65" y="27" width="78.74" height="3.53"/><rect class="cls-11" x="279.65" y="27" width="78.74" height="3.53"/><line class="cls-18" x1="358.42" y1="32.14" x2="358.42" y2="501.67"/><g class="cls-2"><path class="cls-17" d="M358.42,506.41h0m0-483.75h0"/></g><rect class="cls-19" x="105.51" y="490.74" width="54.4" height="3.57"/><rect class="cls-11" x="105.51" y="490.74" width="54.4" height="3.57"/><rect class="cls-19" x="103.26" y="494.95" width="58.89" height="3.57"/><rect class="cls-11" x="103.26" y="494.95" width="58.89" height="3.57"/><rect class="cls-19" x="101.21" y="499.16" width="63" height="3.57"/><rect class="cls-11" x="101.21" y="499.16" width="63" height="3.57"/><rect class="cls-19" x="99.16" y="503.36" width="67.1" height="3.57"/><rect class="cls-11" x="99.16" y="503.36" width="67.1" height="3.57"/></g></svg>